<?xml version="1.0" encoding="utf-8"?>
<!-- Generator: Adobe Illustrator 24.1.2, SVG Export Plug-In . SVG Version: 6.00 Build 0)  -->
<svg version="1.1" id="Layer_1" xmlns="http://www.w3.org/2000/svg" xmlns:xlink="http://www.w3.org/1999/xlink" x="0px" y="0px"
	 viewBox="0 0 147 175" style="enable-background:new 0 0 147 175;" xml:space="preserve">
<path d="M122.9,92.5c-0.1-14.3,6.4-25.2,19.5-33.1c-7.3-10.5-18.4-16.3-33.1-17.4c-13.9-1.1-29,8.1-34.6,8.1
	c-5.9,0-19.3-7.7-29.8-7.7c-21.8,0.4-45,17.4-45,52c0,10.2,1.9,20.8,5.6,31.7c5,14.3,23,49.5,41.9,48.9c9.8-0.2,16.8-7,29.6-7
	c12.4,0,18.9,7,29.8,7c19-0.3,35.3-32.2,40.1-46.6C121.6,116.4,122.9,93.2,122.9,92.5L122.9,92.5z M100.8,28.3
	c10.7-12.7,9.7-24.2,9.4-28.3c-9.4,0.5-20.3,6.4-26.5,13.6c-6.8,7.7-10.9,17.3-10,28.1C83.9,42.5,93.2,37.3,100.8,28.3z"/>
</svg>
